# xmcd
#
# Track frame offsets:
#	150
#	14068
#	23426
#	32390
#	39678
#	55037
#	65354
#	74871
#	83923
#	92438
#	104419
#	115073
#	123402
#	137858
#	145619
#	157487
#	166361
#	175242
#
# Disc length: 2486 seconds
#
# Revision: 0
# Processed by: cddbd v1.4PL0 Copyright (c) Steve Scherf et al.
# Submitted via: EasyCDDAExtractor 5.0.0.0
#
DISCID=f809b412
DTITLE=Jim Reeves - Just Call Me Lonesome CD2
DYEAR=1991
DGENRE=Country
TTITLE0=How's The World Treating You
TTITLE1=Windup Doll
TTITLE2=According To My Heart
TTITLE3=I'm Beginning To Forget You
TTITLE4=Making Believe
TTITLE5=Dear Hearts And Gentle People
TTITLE6=Beyond The Shadow Of A Doubt
TTITLE7=I'd Loke To Be
TTITLE8=Everywhere You Go
TTITLE9=I've Lived A Lot In My Time
TTITLE10=Evening Prayer
TTITLE11=Sweet Evening Breeze (Bring My Baby Back To Me)
TTITLE12=Highway To Nowhere
TTITLE13=In A Mansion Stands My Love
TTITLE14=Mexican Joe
TTITLE15=If You Were Mine
TTITLE16=Old Time Religion
TTITLE17=Home
EXTD=
EXTT0=
EXTT1=
EXTT2=
EXTT3=
EXTT4=
EXTT5=
EXTT6=
EXTT7=
EXTT8=
EXTT9=
EXTT10=
EXTT11=
EXTT12=
EXTT13=
EXTT14=
EXTT15=
EXTT16=
EXTT17=
PLAYORDER=
